<?xml version="1.0" encoding="utf-8"?>
<!-- Generator: Adobe Illustrator 16.0.2, SVG Export Plug-In . SVG Version: 6.00 Build 0)  -->
<!DOCTYPE svg PUBLIC "-//W3C//DTD SVG 1.1//EN" "http://www.w3.org/Graphics/SVG/1.1/DTD/svg11.dtd">
<svg version="1.1" id="Layer_1" xmlns="http://www.w3.org/2000/svg" xmlns:xlink="http://www.w3.org/1999/xlink" x="0px" y="0px"
	 width="224px" height="315px" viewBox="0 0 224 315" enable-background="new 0 0 224 315" xml:space="preserve">
<g>
	<path fill-rule="evenodd" clip-rule="evenodd" fill="none" d="M114.272,310.706c-32.806,0-65.612,0-98.418,0c0-100,0-200,0-300
		c65.85,0,131.7,0,197.549,0c0,33.676,0,67.352,0,101.028c-0.299-0.253-0.596-0.509-0.896-0.759
		c-11.43-9.493-22.861-18.982-34.28-28.486c-0.516-0.43-1.026-0.634-1.704-0.627c-3.042,0.03-6.085,0.015-9.128,0.011
		c-0.42-0.001-0.842-0.035-1.31-0.056c-1.084-8.174-3.842-15.623-8.403-22.384c-4.589-6.802-10.465-12.216-17.607-16.25
		c-7.109-4.014-14.77-6.211-22.904-6.55c-11.223-0.466-21.636,2.305-30.963,8.619c-12.979,8.786-20.431,21.104-22.743,36.623
		c-0.517,0-0.948,0-1.379,0c-2.964,0-5.928,0.017-8.891-0.012c-0.709-0.007-1.264,0.164-1.825,0.632
		c-11.232,9.357-22.483,18.694-33.728,28.037c-1.539,1.278-1.568,1.283-1.553,3.271c0.043,5.728,0.107,11.456,0.178,17.183
		c0.087,6.993,0.405,13.977,0.984,20.946c0.447,5.389,0.908,10.78,1.529,16.151c0.853,7.372,2.021,14.699,3.461,21.982
		c2.095,10.586,4.801,21.006,8.353,31.199c5.016,14.394,11.574,28.017,20.332,40.535c9.014,12.886,19.909,23.887,32.847,32.852
		c9.07,6.284,18.791,11.33,29.061,15.34C113.33,310.184,113.793,310.465,114.272,310.706z M70.802,53.961
		c0.719-2.99,1.369-5.692,2.014-8.374c2.788-0.503,5.451-0.984,8.115-1.465c0.023-0.079,0.048-0.157,0.072-0.235
		c-2.34-1.425-4.68-2.85-7.068-4.305c0.375-2.77,0.746-5.502,1.117-8.235c-0.07-0.029-0.139-0.059-0.209-0.088
		c-2.087,1.791-4.174,3.581-6.28,5.388c-2.539-1.227-5.004-2.417-7.69-3.713c0.206,0.558,0.313,0.882,0.443,1.195
		c0.804,1.93,1.588,3.87,2.436,5.781c0.297,0.67,0.246,1.124-0.291,1.657c-1.516,1.5-2.975,3.057-4.451,4.594
		c-0.206,0.214-0.389,0.45-0.764,0.887c3.001-0.234,5.731-0.447,8.502-0.663C68.073,48.861,69.369,51.284,70.802,53.961z
		 M131.052,20.887c-0.064,0.058-0.129,0.115-0.193,0.173c1.415,2.359,2.83,4.718,4.253,7.091c-1.585,2.332-3.279,4.514-4.952,7.017
		c2.972-0.682,5.649-1.295,8.358-1.916c1.669,2.26,3.296,4.463,4.923,6.666c0.073-0.028,0.146-0.057,0.219-0.085
		c0.248-2.73,0.496-5.461,0.748-8.231c2.66-0.896,5.273-1.776,8.147-2.745c-2.815-1.202-5.346-2.281-7.901-3.372
		c-0.079-2.805-0.015-5.539-0.087-8.268c-0.079-0.021-0.159-0.041-0.238-0.062c-1.807,2.065-3.612,4.131-5.427,6.207
		C136.22,22.518,133.637,21.702,131.052,20.887z M50.284,63.095c-0.991,2.629-1.955,5.188-2.919,7.745
		c0.064,0.049,0.13,0.098,0.195,0.146c2.429-1.273,4.859-2.547,7.313-3.833c2.19,1.758,4.333,3.479,6.643,5.333
		c-0.042-0.417-0.049-0.6-0.08-0.779c-0.368-2.177-0.733-4.354-1.112-6.529c-0.196-1.127-0.209-1.127,0.797-1.785
		c1.42-0.93,2.842-1.856,4.263-2.784c0.552-0.361,1.104-0.725,1.656-1.087c-0.015-0.08-0.029-0.161-0.044-0.242
		c-2.704-0.4-5.407-0.799-8.175-1.208c-0.742-2.692-1.476-5.35-2.285-8.283c-1.357,2.74-2.576,5.201-3.787,7.646
		c-2.821,0.097-5.538-0.404-8.498-0.211C46.38,59.295,48.324,61.187,50.284,63.095z M126.696,19.529
		c-0.03-0.077-0.062-0.154-0.092-0.231c-0.265-0.025-0.53-0.06-0.796-0.071c-2.089-0.091-4.178-0.207-6.269-0.251
		c-0.811-0.017-1.27-0.256-1.549-1.084c-0.655-1.942-1.423-3.847-2.151-5.764c-0.134-0.354-0.299-0.697-0.502-1.169
		c-0.172,0.382-0.295,0.625-0.392,0.878c-0.772,2.027-1.581,4.042-2.284,6.092c-0.267,0.779-0.679,1.052-1.458,1.041
		c-1.025-0.016-2.052,0.036-3.077,0.086c-1.361,0.067-2.722,0.161-4.312,0.257c0.414,0.382,0.647,0.624,0.908,0.833
		c1.63,1.31,3.249,2.637,4.912,3.905c0.599,0.456,0.753,0.903,0.508,1.61c-0.311,0.892-0.525,1.817-0.773,2.73
		c-0.388,1.432-0.77,2.866-1.154,4.299c0.057,0.047,0.113,0.094,0.17,0.141c2.319-1.52,4.638-3.04,6.945-4.551
		c2.377,1.556,4.661,3.05,6.943,4.543c0.056-0.056,0.112-0.112,0.169-0.168c-0.716-2.649-1.433-5.299-2.156-7.975
		C122.466,22.928,124.581,21.229,126.696,19.529z M165.494,40.856c1.095-2.631,2.146-5.158,3.198-7.685
		c-0.063-0.042-0.126-0.085-0.188-0.127c-2.474,1.195-4.948,2.391-7.458,3.604c-2.133-1.832-4.215-3.618-6.295-5.405
		c-0.064,0.041-0.128,0.083-0.192,0.125c0.37,2.722,0.739,5.443,1.115,8.215c-2.39,1.457-4.732,2.884-7.074,4.312
		c0.017,0.072,0.033,0.145,0.05,0.217c2.725,0.497,5.448,0.994,8.16,1.488c0.655,2.747,1.281,5.371,1.907,7.995
		c0.086,0.017,0.171,0.033,0.256,0.05c1.293-2.41,2.585-4.82,3.894-7.26c2.785,0.217,5.504,0.429,8.223,0.641
		c0.033-0.085,0.066-0.169,0.1-0.253C169.312,44.821,167.434,42.871,165.494,40.856z M94.489,28.163
		c1.465-2.439,2.868-4.776,4.405-7.336c-0.522,0.142-0.746,0.193-0.964,0.262c-2.07,0.652-4.151,1.271-6.202,1.979
		c-0.746,0.258-1.203,0.175-1.721-0.459c-1.374-1.68-2.829-3.297-4.26-4.931c-0.158-0.179-0.372-0.31-0.697-0.576
		c0,0.591,0.003,0.983,0,1.376c-0.022,2.014-0.078,4.029-0.054,6.042c0.009,0.751-0.276,1.116-0.958,1.386
		c-1.907,0.757-3.788,1.581-5.676,2.384c-0.355,0.151-0.698,0.329-1.173,0.555c0.398,0.165,0.642,0.284,0.898,0.37
		c2.057,0.691,4.104,1.415,6.181,2.043c0.782,0.237,1.029,0.622,1.072,1.418c0.118,2.206,0.338,4.407,0.528,6.608
		c0.016,0.182,0.102,0.358,0.219,0.749c1.737-2.354,3.366-4.563,5.005-6.782c2.767,0.633,5.447,1.247,8.406,1.925
		C97.74,32.713,96.141,30.475,94.489,28.163z M173.231,50.091c-0.084,0.01-0.166,0.02-0.249,0.029
		c-0.727,2.639-1.453,5.278-2.188,7.952c-2.781,0.41-5.494,0.81-8.208,1.21c-0.015,0.073-0.029,0.146-0.044,0.219
		c2.301,1.507,4.602,3.015,6.931,4.542c-0.471,2.766-0.932,5.473-1.392,8.179c0.061,0.043,0.123,0.087,0.185,0.13
		c2.168-1.742,4.336-3.484,6.466-5.194c2.57,1.281,4.941,2.653,7.621,3.95c-1.071-2.842-2.041-5.415-3.019-8.008
		c1.993-1.95,3.921-3.836,5.85-5.723c-0.039-0.085-0.079-0.171-0.119-0.256c-2.7,0.12-5.402,0.241-8.181,0.364
		C175.656,55,174.443,52.546,173.231,50.091z"/>
	<path fill-rule="evenodd" clip-rule="evenodd" d="M114.272,310.706c-0.479-0.241-0.942-0.522-1.439-0.716
		c-10.27-4.01-19.991-9.056-29.061-15.34c-12.938-8.965-23.833-19.966-32.847-32.852c-8.757-12.519-15.315-26.142-20.332-40.535
		c-3.552-10.193-6.258-20.613-8.353-31.199c-1.441-7.283-2.609-14.61-3.461-21.982c-0.622-5.371-1.083-10.762-1.529-16.151
		c-0.579-6.969-0.897-13.953-0.984-20.946c-0.071-5.728-0.135-11.456-0.178-17.183c-0.015-1.988,0.015-1.993,1.553-3.271
		c11.245-9.343,22.495-18.68,33.728-28.037c0.561-0.468,1.115-0.639,1.825-0.632c2.963,0.028,5.927,0.012,8.891,0.012
		c0.431,0,0.862,0,1.379,0c2.313-15.519,9.764-27.837,22.743-36.623c9.327-6.314,19.74-9.085,30.963-8.619
		c8.134,0.339,15.795,2.537,22.904,6.55c7.143,4.033,13.019,9.447,17.607,16.25c4.562,6.761,7.319,14.21,8.403,22.384
		c0.468,0.021,0.89,0.055,1.31,0.056c3.043,0.004,6.086,0.019,9.128-0.011c0.678-0.006,1.188,0.197,1.704,0.627
		c11.419,9.504,22.851,18.994,34.28,28.486c0.301,0.25,0.598,0.506,0.896,0.759c0,6.403,0,12.806,0,19.209
		c-0.059,0.461-0.166,0.923-0.169,1.384c-0.041,7.036-0.372,14.058-0.981,21.066c-0.359,4.13-0.747,8.257-1.178,12.38
		c-0.832,7.976-2.069,15.891-3.601,23.762c-2.122,10.904-4.913,21.633-8.591,32.12c-4.995,14.235-11.504,27.712-20.166,40.103
		c-8.382,11.991-18.41,22.376-30.235,31.013c-9.789,7.15-20.39,12.801-31.67,17.205c-0.542,0.212-1.061,0.485-1.59,0.729
		C114.905,310.706,114.588,310.706,114.272,310.706z M28.416,175.156c-0.112-0.418-0.227-0.704-0.263-1.001
		c-0.396-3.254-0.896-6.5-1.144-9.766c-0.55-7.249-1.143-14.5-1.402-21.762c-0.287-8.014-0.209-16.042-0.324-24.063
		c-0.012-0.811,0.297-1.301,0.897-1.783c2.927-2.349,5.826-4.734,8.735-7.106c7.38-6.021,14.764-12.036,22.131-18.072
		c0.591-0.484,1.188-0.711,1.941-0.685c0.987,0.036,1.977,0.019,2.964,0c0.337-0.006,0.673-0.083,1.064-0.136
		c0-1.133,0-2.155,0-3.177c0-1.011,0-2.021,0-3.141c-0.446,0-0.834,0-1.221,0c-2.332,0-4.665,0.026-6.996-0.014
		c-0.801-0.014-1.413,0.219-2.03,0.737c-11.017,9.25-22.046,18.486-33.094,27.698c-0.677,0.564-0.933,1.135-0.936,2.006
		c-0.033,9.209-0.093,18.419,0.462,27.616c0.369,6.112,0.735,12.227,1.281,18.324c0.626,7.001,1.571,13.969,2.725,20.907
		c1.615,9.709,3.715,19.306,6.475,28.755c4.248,14.544,9.934,28.477,17.749,41.495c8.532,14.211,19.185,26.553,32.342,36.688
		c10.408,8.018,21.823,14.214,34.075,18.907c0.675,0.259,1.278,0.271,1.94-0.01c1.199-0.511,2.425-0.956,3.63-1.453
		c10.72-4.42,20.748-10.055,29.973-17.098c15.132-11.554,26.907-25.944,35.981-42.613c5.742-10.551,10.203-21.635,13.719-33.106
		c3.385-11.042,5.854-22.294,7.66-33.697c1.193-7.534,2.135-15.098,2.737-22.698c0.481-6.064,0.811-12.143,1.082-18.22
		c0.356-7.976,0.448-15.959,0.271-23.944c-0.017-0.774-0.246-1.31-0.853-1.815c-11.105-9.268-22.195-18.553-33.277-27.849
		c-0.518-0.434-1.034-0.635-1.71-0.627c-2.449,0.029-4.901,0.008-7.351,0.016c-0.345,0.001-0.689,0.051-1.073,0.082
		c0,2.106,0,4.139,0,6.273c0.453,0.038,0.833,0.092,1.215,0.097c0.948,0.013,1.898,0.038,2.845-0.005
		c0.76-0.034,1.352,0.217,1.937,0.699c3.476,2.867,6.975,5.704,10.466,8.551c6.768,5.521,13.528,11.051,20.316,16.546
		c0.685,0.554,1.051,1.133,0.954,2.002c-0.022,0.195,0.009,0.395,0.006,0.592c-0.102,7.784-0.135,15.57-0.336,23.351
		c-0.129,5.014-0.418,10.028-0.795,15.03c-0.353,4.686-0.904,9.356-1.395,14.031c-0.115,1.112-0.331,2.213-0.499,3.306
		c-0.248-0.025-0.334-0.013-0.4-0.045c-0.248-0.118-0.494-0.247-0.734-0.383c-23.919-13.513-49.562-21.211-77.009-22.8
		c-8.262-0.479-16.514-0.25-24.743,0.601c-6.328,0.654-12.604,1.665-18.821,3.029c-17.52,3.844-34.129,10.079-49.737,18.946
		C29.41,174.622,28.965,174.856,28.416,175.156z M198.711,169.884c0.08-0.345,0.162-0.604,0.198-0.87
		c0.983-7.167,1.565-14.372,1.895-21.596c0.423-9.281,0.437-18.567,0.311-27.855c-0.01-0.739-0.213-1.224-0.81-1.692
		c-4.009-3.148-7.984-6.339-11.972-9.514c-5.688-4.528-11.376-9.058-17.073-13.576c-0.327-0.26-0.724-0.581-1.103-0.603
		c-1.295-0.075-2.597-0.029-3.986-0.029c-1.022,8.288-3.76,15.872-8.365,22.753c-4.61,6.888-10.532,12.37-17.754,16.434
		c-7.224,4.063-15.001,6.255-23.271,6.544c-11.109,0.387-21.395-2.402-30.608-8.649c-13.129-8.9-20.586-21.387-22.784-37.088
		c-1.204,0-2.31,0.026-3.413-0.011c-0.592-0.019-1.05,0.164-1.509,0.53c-9.73,7.762-19.468,15.516-29.216,23.256
		c-0.546,0.433-0.771,0.9-0.779,1.599c-0.2,16.17,0.004,32.322,2.085,48.393c0.083,0.646,0.196,1.287,0.305,1.992
		c26.268-14.237,54.284-21.114,83.916-21.118C144.415,148.781,172.437,155.646,198.711,169.884z M144.024,109.676
		c3.47-2.596,6.845-5.134,10.237-7.648c0.441-0.327,0.544-0.709,0.554-1.213c0.156-7.66,0.317-15.319,0.506-22.978
		c0.018-0.708-0.211-1.157-0.768-1.582c-3.043-2.324-6.062-4.684-9.089-7.029c-0.245-0.189-0.507-0.355-0.742-0.519
		c-0.163,0.062-0.285,0.085-0.381,0.148c-4.825,3.152-9.645,6.315-14.479,9.454c-0.508,0.33-0.618,0.734-0.625,1.286
		c-0.087,5.962-0.179,11.925-0.309,17.887c-0.016,0.752,0.199,1.216,0.816,1.668c4.493,3.288,8.956,6.618,13.428,9.933
		C143.424,109.271,143.687,109.442,144.024,109.676z M78.297,89.216c-1.238,4.191-2.431,8.283-3.668,12.361
		c-0.186,0.611,0.097,0.974,0.387,1.391c4.214,6.067,8.437,12.128,12.63,18.209c0.404,0.586,0.853,0.813,1.545,0.846
		c3.945,0.187,7.89,0.415,11.834,0.624c0.352,0.019,0.705,0.002,1.104,0.002c0.154-0.386,0.314-0.743,0.442-1.11
		c1.764-5.07,3.507-10.148,5.304-15.207c0.27-0.76,0.185-1.301-0.281-1.949c-3.505-4.875-6.987-9.767-10.44-14.679
		c-0.482-0.686-0.98-0.965-1.834-0.938c-5.292,0.159-10.585,0.259-15.877,0.382C79.091,89.158,78.741,89.19,78.297,89.216z
		 M142.814,111.093c-0.141-0.097-0.272-0.184-0.398-0.278c-4.659-3.465-9.322-6.924-13.968-10.407
		c-0.519-0.389-0.986-0.345-1.544-0.183c-5.455,1.594-10.909,3.19-16.378,4.735c-0.787,0.222-1.161,0.603-1.403,1.366
		c-1.719,5.417-3.484,10.819-5.229,16.227c-0.093,0.29-0.138,0.595-0.199,0.867c0.139,0.128,0.218,0.218,0.313,0.285
		c3.274,2.279,6.557,4.545,9.817,6.843c0.482,0.34,0.898,0.334,1.425,0.177c7.448-2.229,14.899-4.449,22.356-6.646
		c0.641-0.189,0.959-0.527,1.171-1.153c1.23-3.626,2.503-7.236,3.757-10.853C142.637,111.782,142.704,111.48,142.814,111.093z
		 M78.314,87.495c0.429,0,0.74,0.011,1.051-0.001c5.483-0.221,10.965-0.462,16.45-0.649c0.698-0.023,1.06-0.333,1.434-0.832
		c3.504-4.675,7.011-9.348,10.556-13.992c0.469-0.614,0.523-1.126,0.302-1.833c-1.534-4.893-3.029-9.798-4.538-14.698
		c-0.091-0.295-0.202-0.583-0.295-0.852c-0.182-0.044-0.294-0.096-0.408-0.096c-4.304-0.007-8.607-0.002-12.911-0.021
		c-0.493-0.001-0.792,0.185-1.075,0.572c-4.46,6.079-8.929,12.152-13.412,18.215c-0.342,0.463-0.417,0.899-0.275,1.431
		c0.234,0.876,0.441,1.76,0.657,2.641C76.662,80.711,77.474,84.044,78.314,87.495z M143.377,67.372
		c-0.074-0.297-0.111-0.489-0.168-0.673c-1.192-3.804-2.406-7.603-3.564-11.417c-0.206-0.681-0.639-0.912-1.225-1.112
		c-7.252-2.462-14.502-4.929-21.744-7.419c-0.656-0.226-1.157-0.2-1.747,0.204c-3.194,2.187-6.418,4.33-9.629,6.494
		c-0.255,0.171-0.484,0.38-0.696,0.548c0.02,0.152,0.018,0.233,0.042,0.306c1.649,5.192,3.315,10.379,4.934,15.58
		c0.213,0.685,0.645,0.899,1.235,1.096c5.729,1.915,11.455,3.835,17.169,5.791c0.67,0.229,1.163,0.175,1.745-0.221
		c3.099-2.116,6.224-4.194,9.341-6.286C140.477,69.317,141.886,68.372,143.377,67.372z M114.063,39.846
		c0.917,1.686,1.708,3.089,2.445,4.52c0.293,0.57,0.701,0.876,1.304,1.082c7.017,2.385,14.028,4.789,21.032,7.212
		c0.606,0.21,1.119,0.184,1.692-0.07c1.226-0.541,2.476-1.029,3.713-1.545c0.271-0.113,0.532-0.251,0.971-0.459
		C136.051,43.377,125.831,39.836,114.063,39.846z M159.901,105.628c4.401-10.387,4.068-24.217,0.779-32.33
		c-0.991,0.944-1.929,1.898-2.936,2.771c-0.62,0.537-0.861,1.123-0.867,1.943c-0.038,4.743-0.123,9.485-0.201,14.227
		c-0.047,2.964-0.121,5.928-0.15,8.892c-0.004,0.404,0.064,0.916,0.307,1.199C157.779,103.435,158.809,104.468,159.901,105.628z
		 M87.914,48.022c-5.99,4.04-10.682,8.963-14.342,14.876c-2.54,4.104-4.819,9.437-4.775,11.102c1.294-0.135,2.581-0.309,3.874-0.389
		c0.624-0.039,0.999-0.303,1.348-0.787c1.249-1.727,2.531-3.429,3.802-5.141c3.293-4.437,6.587-8.874,9.88-13.311
		c0.304-0.409,0.616-0.787,0.564-1.375C88.124,51.431,88.039,49.858,87.914,48.022z M143.035,127.416
		c-0.878-0.366-1.681-0.608-2.389-1.016c-1.588-0.915-3.108-0.797-4.829-0.247c-6.646,2.125-13.338,4.105-20.01,6.148
		c-0.369,0.112-0.873,0.202-1.044,0.472c-0.747,1.183-1.395,2.429-2.106,3.701C120.954,137.792,136.593,133.127,143.035,127.416z
		 M68.573,101.839c0.129,6.394,12.066,23.251,18.033,25.463c0.15-1.19,0.254-2.367,0.463-3.525c0.117-0.645-0.029-1.127-0.4-1.642
		c-1.57-2.18-3.108-4.381-4.659-6.575c-2.826-4-5.647-8.005-8.488-11.996c-0.237-0.333-0.563-0.732-0.922-0.83
		C71.282,102.376,69.932,102.132,68.573,101.839z"/>
	<path fill-rule="evenodd" clip-rule="evenodd" fill="none" d="M115.221,310.706c0.529-0.244,1.048-0.518,1.59-0.729
		c11.28-4.404,21.881-10.055,31.67-17.205c11.825-8.637,21.854-19.021,30.235-31.013c8.662-12.391,15.171-25.867,20.166-40.103
		c3.678-10.487,6.469-21.216,8.591-32.12c1.531-7.871,2.769-15.787,3.601-23.762c0.431-4.123,0.818-8.25,1.178-12.38
		c0.609-7.008,0.94-14.031,0.981-21.066c0.003-0.461,0.11-0.923,0.169-1.384c0,59.896,0,119.791,0,179.763
		C180.675,310.706,147.948,310.706,115.221,310.706z"/>
	<path fill-rule="evenodd" clip-rule="evenodd" d="M70.802,53.961c-1.433-2.677-2.729-5.1-4.053-7.576
		c-2.771,0.216-5.501,0.429-8.502,0.663c0.375-0.438,0.558-0.673,0.764-0.887c1.477-1.538,2.936-3.095,4.451-4.594
		c0.537-0.533,0.588-0.986,0.291-1.657c-0.848-1.911-1.632-3.851-2.436-5.781c-0.13-0.313-0.237-0.637-0.443-1.195
		c2.686,1.296,5.151,2.487,7.69,3.713c2.106-1.807,4.193-3.597,6.28-5.388c0.07,0.029,0.139,0.059,0.209,0.088
		c-0.371,2.733-0.741,5.465-1.117,8.235c2.388,1.455,4.728,2.88,7.068,4.305c-0.024,0.079-0.049,0.157-0.072,0.235
		c-2.664,0.481-5.327,0.961-8.115,1.465C72.171,48.269,71.521,50.971,70.802,53.961z M75.802,43.07
		c0.022-0.088,0.044-0.175,0.066-0.263c-0.869-0.534-1.735-1.073-2.606-1.603c-1.433-0.873-1.429-0.87-1.178-2.519
		c0.153-1.004,0.285-2.012,0.455-3.225c-0.421,0.305-0.678,0.469-0.908,0.663c-0.785,0.662-1.575,1.319-2.333,2.012
		c-0.408,0.372-0.78,0.45-1.273,0.171c-0.549-0.309-1.135-0.554-1.704-0.828c-0.62-0.299-1.239-0.599-2.103-1.015
		c0.223,0.609,0.33,0.932,0.458,1.247c0.373,0.914,0.737,1.832,1.141,2.732c0.208,0.463,0.149,0.819-0.21,1.17
		c-0.452,0.441-0.879,0.909-1.316,1.365c-0.507,0.529-1.012,1.058-1.69,1.766c1.223-0.083,2.195-0.006,3.084-0.241
		c1.606-0.422,2.395,0.255,2.938,1.664c0.328,0.852,0.856,1.627,1.408,2.646c0.353-1.471,0.71-2.648,0.898-3.852
		c0.138-0.883,0.616-1.172,1.398-1.289C73.49,43.5,74.644,43.273,75.802,43.07z"/>
	<path fill-rule="evenodd" clip-rule="evenodd" d="M131.052,20.887c2.585,0.815,5.168,1.63,7.85,2.476
		c1.815-2.076,3.621-4.142,5.427-6.207c0.079,0.021,0.159,0.041,0.238,0.062c0.072,2.729,0.008,5.463,0.087,8.268
		c2.556,1.091,5.086,2.17,7.901,3.372c-2.874,0.968-5.487,1.848-8.147,2.745c-0.252,2.771-0.5,5.501-0.748,8.231
		c-0.072,0.028-0.146,0.057-0.219,0.085c-1.627-2.203-3.254-4.405-4.923-6.666c-2.709,0.621-5.386,1.234-8.358,1.916
		c1.673-2.503,3.367-4.686,4.952-7.017c-1.423-2.373-2.838-4.732-4.253-7.091C130.923,21.002,130.988,20.945,131.052,20.887z
		 M139.323,31.091c0.974,1.306,1.88,2.52,2.785,3.733c0.083-0.031,0.166-0.062,0.249-0.093c0.109-1.162,0.229-2.323,0.324-3.487
		c0.09-1.127,0.075-1.132,1.133-1.494c1.143-0.39,2.288-0.77,3.649-1.228c-0.48-0.25-0.736-0.403-1.007-0.521
		c-0.939-0.409-1.878-0.825-2.831-1.198c-0.518-0.202-0.721-0.524-0.709-1.075c0.021-1.104,0.003-2.209-0.013-3.314
		c-0.003-0.236-0.065-0.472-0.125-0.871c-1.156,1.322-2.187,2.502-3.224,3.689c-1.584-0.491-3.07-0.952-4.821-1.495
		c0.953,1.61,1.764,2.982,2.569,4.344c-0.96,1.353-1.844,2.599-2.905,4.093C136.195,31.78,137.711,31.446,139.323,31.091z"/>
	<path fill-rule="evenodd" clip-rule="evenodd" d="M50.284,63.095c-1.96-1.908-3.904-3.799-6.034-5.873
		c2.96-0.193,5.677,0.308,8.498,0.211c1.211-2.445,2.43-4.905,3.787-7.646c0.81,2.933,1.543,5.591,2.285,8.283
		c2.769,0.409,5.472,0.809,8.175,1.208c0.015,0.081,0.029,0.162,0.044,0.242c-0.552,0.363-1.104,0.726-1.656,1.087
		c-1.421,0.928-2.843,1.854-4.263,2.784c-1.006,0.658-0.993,0.658-0.797,1.785c0.379,2.175,0.745,4.353,1.112,6.529
		c0.03,0.179,0.038,0.362,0.08,0.779c-2.31-1.854-4.453-3.575-6.643-5.333c-2.455,1.287-4.884,2.56-7.313,3.833
		c-0.065-0.048-0.13-0.097-0.195-0.146C48.329,68.282,49.293,65.724,50.284,63.095z M54.905,64.966
		c1.274,1.016,2.468,1.968,3.662,2.919c0.076-0.038,0.151-0.076,0.226-0.114c-0.165-0.951-0.332-1.901-0.495-2.852
		c-0.309-1.791-0.307-1.788,1.234-2.802c0.806-0.531,1.606-1.071,2.409-1.608c-1.123-0.372-2.167-0.538-3.214-0.675
		c-1.5-0.197-1.5-0.189-1.885-1.614c-0.286-1.056-0.581-2.11-0.926-3.363c-0.271,0.438-0.447,0.68-0.58,0.944
		c-0.441,0.883-0.895,1.761-1.29,2.665c-0.262,0.599-0.642,0.827-1.293,0.743c-0.585-0.076-1.183-0.065-1.775-0.076
		c-0.65-0.012-1.3-0.002-2.254-0.002c1.28,1.278,2.353,2.349,3.45,3.445c-0.556,1.503-1.094,2.957-1.632,4.41
		c0.063,0.043,0.127,0.087,0.191,0.13C52.095,66.416,53.455,65.714,54.905,64.966z"/>
	<path fill-rule="evenodd" clip-rule="evenodd" d="M126.696,19.529c-2.115,1.7-4.23,3.399-6.411,5.151
		c0.724,2.676,1.44,5.325,2.156,7.975c-0.057,0.057-0.113,0.112-0.169,0.168c-2.283-1.494-4.566-2.988-6.943-4.543
		c-2.307,1.512-4.626,3.031-6.945,4.551c-0.057-0.047-0.113-0.094-0.17-0.141c0.384-1.433,0.766-2.867,1.154-4.299
		c0.248-0.913,0.462-1.838,0.773-2.73c0.245-0.707,0.091-1.154-0.508-1.61c-1.664-1.268-3.282-2.595-4.912-3.905
		c-0.261-0.209-0.494-0.451-0.908-0.833c1.59-0.096,2.951-0.19,4.312-0.257c1.025-0.051,2.052-0.102,3.077-0.086
		c0.779,0.011,1.191-0.262,1.458-1.041c0.703-2.051,1.512-4.065,2.284-6.092c0.096-0.253,0.22-0.496,0.392-0.878
		c0.204,0.472,0.368,0.815,0.502,1.169c0.729,1.917,1.497,3.821,2.151,5.764c0.279,0.828,0.738,1.067,1.549,1.084
		c2.091,0.044,4.18,0.16,6.269,0.251c0.266,0.012,0.531,0.046,0.796,0.071C126.635,19.375,126.666,19.453,126.696,19.529z
		 M108.858,20.657c-0.026,0.085-0.053,0.169-0.079,0.254c1.208,0.977,2.417,1.954,3.583,2.897c-0.263,1.65-0.933,3.078-1.125,4.825
		c1.477-0.961,2.76-1.796,4.081-2.656c1.359,0.872,2.671,1.712,4.233,2.715c-0.479-1.802-0.879-3.308-1.276-4.8
		c1.157-1.154,2.532-1.932,3.685-3.156c-0.337-0.058-0.489-0.098-0.644-0.107c-0.867-0.052-1.735-0.106-2.604-0.143
		c-1.69-0.071-1.475,0.202-2.146-1.571c-0.375-0.991-0.759-1.979-1.241-3.231c-0.507,1.337-0.919,2.431-1.335,3.523
		c-0.471,1.233-0.474,1.221-1.76,1.272C111.106,20.524,109.982,20.597,108.858,20.657z"/>
	<path fill-rule="evenodd" clip-rule="evenodd" d="M165.494,40.856c1.939,2.015,3.817,3.965,5.695,5.916
		c-0.033,0.084-0.066,0.168-0.1,0.253c-2.719-0.212-5.438-0.423-8.223-0.641c-1.309,2.44-2.601,4.85-3.894,7.26
		c-0.085-0.017-0.17-0.033-0.256-0.05c-0.626-2.624-1.252-5.248-1.907-7.995c-2.712-0.495-5.436-0.991-8.16-1.488
		c-0.017-0.072-0.033-0.145-0.05-0.217c2.342-1.427,4.685-2.855,7.074-4.312c-0.376-2.772-0.745-5.493-1.115-8.215
		c0.064-0.042,0.128-0.083,0.192-0.125c2.08,1.787,4.162,3.573,6.295,5.405c2.51-1.213,4.984-2.409,7.458-3.604
		c0.062,0.042,0.124,0.085,0.188,0.127C167.64,35.698,166.589,38.226,165.494,40.856z M157.329,35.563
		c-0.072,0.043-0.145,0.085-0.216,0.128c0.154,1.169,0.3,2.339,0.467,3.506c0.164,1.146,0.176,1.145-0.851,1.773
		c-0.504,0.31-1.015,0.61-1.518,0.924c-0.487,0.304-0.967,0.619-1.451,0.929c1.195,0.441,2.339,0.68,3.494,0.838
		c0.856,0.117,1.303,0.484,1.445,1.388c0.182,1.151,0.532,2.275,0.809,3.411c0.082,0.014,0.164,0.027,0.246,0.041
		c0.552-1.028,1.103-2.056,1.655-3.083c0.591-1.096,0.591-1.089,1.825-0.962c0.589,0.061,1.182,0.09,1.772,0.133
		c0.566,0.042,1.133,0.082,1.99,0.144c-1.286-1.347-2.363-2.475-3.461-3.625c0.625-1.521,1.218-2.966,1.888-4.595
		c-0.463,0.186-0.748,0.282-1.017,0.411c-0.89,0.428-1.793,0.834-2.652,1.315c-0.621,0.347-1.07,0.252-1.578-0.218
		C159.257,37.172,158.281,36.38,157.329,35.563z"/>
	<path fill-rule="evenodd" clip-rule="evenodd" d="M94.489,28.163c1.651,2.312,3.251,4.551,5.01,7.014
		c-2.959-0.678-5.639-1.292-8.406-1.925c-1.639,2.22-3.269,4.429-5.005,6.782c-0.117-0.391-0.204-0.566-0.219-0.749
		c-0.19-2.202-0.41-4.402-0.528-6.608c-0.043-0.796-0.291-1.182-1.072-1.418c-2.077-0.628-4.125-1.352-6.181-2.043
		c-0.256-0.086-0.5-0.205-0.898-0.37c0.475-0.226,0.818-0.404,1.173-0.555c1.889-0.803,3.77-1.626,5.676-2.384
		c0.681-0.271,0.967-0.635,0.958-1.386c-0.023-2.014,0.032-4.028,0.054-6.042c0.004-0.393,0-0.785,0-1.376
		c0.326,0.266,0.54,0.396,0.697,0.576c1.431,1.634,2.886,3.251,4.26,4.931c0.518,0.634,0.975,0.717,1.721,0.459
		c2.051-0.708,4.132-1.327,6.202-1.979c0.218-0.068,0.441-0.12,0.964-0.262C97.357,23.386,95.954,25.723,94.489,28.163z
		 M82.373,28.34c0.005,0.086,0.011,0.171,0.016,0.257c0.692,0.239,1.383,0.483,2.077,0.715c2.441,0.817,2.433,0.816,2.589,3.378
		c0.044,0.714,0.159,1.424,0.251,2.228c0.21-0.165,0.285-0.203,0.329-0.262c0.591-0.791,1.166-1.594,1.767-2.376
		c1.057-1.375,0.594-1.244,2.41-0.858c1.053,0.224,2.102,0.467,3.418,0.761c-0.929-1.297-1.656-2.37-2.447-3.395
		c-0.406-0.525-0.428-0.97-0.038-1.485c0.189-0.25,0.333-0.537,0.494-0.808c0.493-0.835,0.985-1.67,1.621-2.749
		c-1.762,0.545-3.25,1.006-4.752,1.471c-1.166-1.091-2.011-2.419-3.287-3.374c-0.127,1.322-0.144,2.582-0.121,3.841
		c0.011,0.598-0.225,0.964-0.789,1.153c-0.336,0.113-0.657,0.27-0.983,0.409C84.076,27.609,83.224,27.975,82.373,28.34z"/>
	<path fill-rule="evenodd" clip-rule="evenodd" d="M173.231,50.091c1.212,2.455,2.425,4.91,3.652,7.395
		c2.778-0.124,5.48-0.244,8.181-0.364c0.04,0.085,0.08,0.171,0.119,0.256c-1.929,1.887-3.856,3.773-5.85,5.723
		c0.978,2.593,1.947,5.166,3.019,8.008c-2.68-1.297-5.051-2.669-7.621-3.95c-2.13,1.71-4.298,3.453-6.466,5.194
		c-0.062-0.043-0.124-0.087-0.185-0.13c0.46-2.707,0.921-5.413,1.392-8.179c-2.329-1.527-4.63-3.035-6.931-4.542
		c0.015-0.073,0.029-0.146,0.044-0.219c2.714-0.4,5.427-0.8,8.208-1.21c0.735-2.673,1.462-5.313,2.188-7.952
		C173.065,50.11,173.147,50.101,173.231,50.091z M178.885,67.142c0.067-0.042,0.135-0.083,0.202-0.125
		c-0.453-1.209-0.87-2.434-1.372-3.622c-0.26-0.615-0.148-1.025,0.326-1.456c0.761-0.689,1.483-1.42,2.209-2.147
		c0.166-0.167,0.277-0.39,0.411-0.583c-1.352,0-2.612-0.03-3.871,0.013c-0.593,0.02-0.955-0.151-1.196-0.71
		c-0.345-0.796-0.754-1.565-1.142-2.341c-0.198-0.395-0.413-0.781-0.692-1.306c-0.132,0.331-0.187,0.437-0.218,0.548
		c-0.215,0.759-0.43,1.519-0.634,2.281c-0.514,1.911-0.514,1.903-2.541,2.195c-0.897,0.129-1.789,0.296-2.944,0.49
		c1.221,0.799,2.178,1.423,3.132,2.05c1.08,0.71,1.075,0.711,0.84,2.015c-0.202,1.119-0.393,2.238-0.639,3.645
		c1.46-1.145,2.711-2.125,3.979-3.118C176.169,65.72,177.527,66.43,178.885,67.142z"/>
	<path fill-rule="evenodd" clip-rule="evenodd" fill="#F7DB17" d="M20.482,160.833c-0.546-6.097-0.912-12.212-1.281-18.324
		c-0.555-9.197-0.496-18.407-0.462-27.616c0.003-0.871,0.259-1.442,0.936-2.006c11.048-9.212,22.077-18.448,33.094-27.698
		c0.617-0.518,1.229-0.75,2.03-0.737c2.331,0.041,4.664,0.014,6.996,0.014c0.387,0,0.775,0,1.221,0c0,1.119,0,2.13,0,3.141
		c0,1.022,0,2.044,0,3.177c-0.392,0.052-0.727,0.13-1.064,0.136c-0.987,0.018-1.977,0.036-2.964,0
		c-0.752-0.027-1.35,0.201-1.941,0.685c-7.367,6.037-14.751,12.051-22.131,18.072c-2.909,2.373-5.808,4.757-8.735,7.106
		c-0.6,0.482-0.909,0.972-0.897,1.783c0.115,8.021,0.038,16.049,0.324,24.063c0.26,7.262,0.852,14.513,1.402,21.762
		c0.248,3.265,0.748,6.512,1.144,9.766c0.036,0.297,0.15,0.583,0.263,1.001c0.549-0.3,0.995-0.534,1.432-0.782
		c15.607-8.868,32.217-15.102,49.737-18.946c6.217-1.364,12.493-2.375,18.821-3.029c8.229-0.851,16.481-1.08,24.743-0.601
		c27.447,1.589,53.09,9.287,77.009,22.8c0.24,0.136,0.486,0.265,0.734,0.383c0.066,0.032,0.152,0.02,0.4,0.045
		c0.168-1.092,0.384-2.194,0.499-3.306c0.49-4.674,1.042-9.345,1.395-14.031c0.377-5.002,0.666-10.016,0.795-15.03
		c0.201-7.781,0.234-15.567,0.336-23.351c0.003-0.197-0.028-0.397-0.006-0.592c0.097-0.869-0.27-1.448-0.954-2.002
		c-6.788-5.495-13.549-11.025-20.316-16.546c-3.491-2.847-6.99-5.684-10.466-8.551c-0.585-0.481-1.177-0.733-1.937-0.699
		c-0.946,0.042-1.896,0.018-2.845,0.005c-0.382-0.005-0.762-0.059-1.215-0.097c0-2.134,0-4.167,0-6.273
		c0.384-0.031,0.729-0.081,1.073-0.082c2.449-0.007,4.901,0.014,7.351-0.016c0.676-0.008,1.192,0.194,1.71,0.627
		c11.082,9.295,22.172,18.581,33.277,27.849c0.606,0.505,0.836,1.041,0.853,1.815c0.177,7.985,0.085,15.968-0.271,23.944
		c-0.271,6.078-0.601,12.156-1.082,18.22c-0.603,7.6-1.544,15.164-2.737,22.698c-1.807,11.403-4.275,22.655-7.66,33.697
		c-3.516,11.472-7.977,22.556-13.719,33.106c-9.074,16.669-20.85,31.06-35.981,42.613c-9.225,7.043-19.252,12.678-29.973,17.098
		c-1.205,0.497-2.431,0.942-3.63,1.453c-0.662,0.281-1.266,0.269-1.94,0.01c-12.252-4.693-23.667-10.89-34.075-18.907
		c-13.157-10.136-23.81-22.478-32.342-36.688c-7.815-13.019-13.501-26.951-17.749-41.495c-2.76-9.449-4.86-19.046-6.475-28.755
		 M196.863,199.213c-0.201-0.212-0.248-0.279-0.311-0.324c-0.192-0.138-0.387-0.272-0.587-0.399
		c-11.472-7.285-23.714-12.896-36.717-16.836c-12.769-3.869-25.82-6.009-39.157-6.48c-10.824-0.384-21.56,0.395-32.212,2.281
		c-11.397,2.019-22.424,5.308-33.066,9.872c-7.312,3.137-14.333,6.824-21.048,11.09c-1,0.635-1.003,0.642-0.704,1.795
		c0.407,1.566,0.808,3.135,1.24,4.694c4.035,14.595,9.407,28.653,16.859,41.872c5.361,9.509,11.705,18.298,19.281,26.177
		c12.182,12.669,26.584,21.903,43.111,27.854c0.817,0.294,1.555,0.345,2.402,0.041c15.712-5.641,29.546-14.262,41.393-26.04
		c10.534-10.475,18.716-22.609,25.254-35.896c4.79-9.733,8.588-19.853,11.637-30.255
		C195.156,205.518,195.992,202.353,196.863,199.213z M172.424,167.977c-1.061,1.047-1.896,1.871-2.729,2.694
		c-0.843,0.833-1.669,1.684-2.531,2.497c-0.84,0.793-1.562,1.722-2.63,2.447c-0.477-1.312-0.914-2.509-1.359-3.727
		c0.337-0.148,0.555-0.239,0.767-0.338c1.147-0.532,1.761-1.453,1.821-2.693c0.06-1.22-0.545-2.146-1.574-2.727
		c-1.422-0.799-3.019-1.065-4.701-1.471c-0.907,3.41-1.866,6.677-2.652,10.095c0.842,0.221,1.549,0.407,2.359,0.618
		c0.207-0.686,0.387-1.278,0.564-1.873c0.182-0.608,0.36-1.217,0.539-1.825c0.675,1.236,1.14,2.445,1.528,3.677
		c0.188,0.595,0.492,0.993,1.115,1.047c0.511,0.043,1.027,0.008,1.646,0.008c0.093,0.84,0.908,0.815,1.6,1.016
		c0.414-0.385,0.785-0.731,1.201-1.12c1.258,0.437,2.511,0.872,3.521,1.224c0.541,0.736,0.051,1.639,0.977,1.906
		c0.616,0.178,1.225,0.38,2.021,0.63C173.429,175.977,173.031,172.123,172.424,167.977z M63.405,166.94
		c-2.941,0.009-5.27,2.405-5.254,5.406c0.016,3.129,2.456,5.683,5.452,5.707c2.919,0.024,5.338-2.408,5.324-5.355
		C68.911,169.486,66.461,166.931,63.405,166.94z M100.233,164.027c-0.011,3.142,2.326,5.626,5.309,5.642
		c3.03,0.017,5.407-2.428,5.393-5.544c-0.015-3.137-2.377-5.589-5.38-5.585C102.581,158.543,100.244,160.952,100.233,164.027z
		 M36.889,189.786c1.473-0.788,2.77-1.446,4.025-2.175c0.432-0.25,0.813-0.638,1.128-1.034c1.353-1.701,1.614-3.562,0.663-5.54
		c-0.91-1.891-2.437-2.901-4.531-2.855c-2.163,0.047-3.966,1.135-5.875,2.191C33.829,183.51,35.311,186.55,36.889,189.786z
		 M146.057,165.328c0.252-1.322,0.47-2.464,0.71-3.72c-0.879-0.172-1.63-0.32-2.354-0.462c-0.557,1.334-2.188,9.272-2.103,10.163
		c0.726,0.227,1.45,0.518,2.316,0.391c0.306-1.319,0.604-2.611,0.935-4.035c1.269,0.274,2.436,0.526,3.667,0.792
		c-0.287,1.459-0.544,2.762-0.827,4.193c0.832,0.185,1.58,0.351,2.47,0.549c0.394-1.788,0.805-3.463,1.121-5.155
		c0.314-1.682,0.857-3.33,0.953-5.115c-0.824-0.169-1.543-0.315-2.351-0.481c-0.302,1.241-0.577,2.375-0.883,3.63
		C148.486,165.828,147.346,165.593,146.057,165.328z M75.431,169.917c0.219-0.293,0.364-0.476,0.498-0.666
		c1.434-2.032,0.34-4.631-2.129-4.858c-1.745-0.16-3.373,0.511-5.096,0.987c0.858,3.433,1.677,6.709,2.527,10.109
		c0.873-0.217,1.61-0.4,2.423-0.604c-0.296-1.343-0.559-2.533-0.821-3.723c0.48,0.124,0.758,0.326,1.017,0.554
		c0.742,0.651,1.464,1.325,2.219,1.96c0.227,0.191,0.569,0.442,0.801,0.394c0.784-0.166,1.627-0.205,2.439-0.8
		C78,172.139,76.755,171.062,75.431,169.917z M48.783,175.142c-0.315-0.727-0.585-1.352-0.893-2.061
		c-2.042,0.868-3.947,1.678-5.972,2.539c1.39,3.268,2.723,6.402,4.104,9.649c2.077-0.884,4.013-1.708,6.052-2.574
		c-0.359-0.787-0.644-1.408-0.958-2.097c-1.271,0.521-2.422,0.992-3.66,1.498c-0.252-0.605-0.458-1.102-0.691-1.662
		c1.041-0.487,2.019-0.944,3.057-1.43c-0.324-0.722-0.591-1.314-0.889-1.977c-1.094,0.429-2.066,0.811-3.118,1.224
		c-0.217-0.568-0.391-1.022-0.583-1.521C46.458,176.182,47.56,175.688,48.783,175.142z M195.946,182.07
		c0.364-0.594,0.655-1.048,0.924-1.514c0.476-0.826,0.487-0.924-0.182-1.641c-1.593-1.703-3.547-2.393-5.794-1.679
		c-2.285,0.725-3.572,2.437-3.869,4.781c-0.43,3.382,2.156,6.226,5.479,6.118c0.324-0.011,0.783-0.104,0.937-0.328
		c0.431-0.622,0.734-1.332,1.139-2.105c-0.838,0-1.468,0.045-2.09-0.01c-1.215-0.106-2.214-0.613-2.706-1.799
		c-0.579-1.395,0.177-3.342,1.542-4.084c1.355-0.737,2.968-0.273,3.918,1.135C195.458,181.262,195.648,181.593,195.946,182.07z
		 M141.731,164.092c0.168-0.667,0.289-1.122,0.397-1.578c0.266-1.117,0.239-1.229-0.784-1.779c-1.879-1.011-3.798-1.072-5.637,0.047
		c-1.938,1.179-2.697,3.033-2.612,5.238c0.111,2.92,2.708,5.785,6.761,4.968c0.423-0.085,1.002-0.354,1.142-0.691
		c0.289-0.694,0.331-1.49,0.507-2.415c-0.695,0.254-1.157,0.476-1.646,0.592c-1.29,0.307-2.532,0.275-3.473-0.84
		c-0.976-1.157-0.843-3.231,0.246-4.361c1.045-1.087,2.802-1.123,4.085-0.076C141.016,163.439,141.296,163.706,141.731,164.092z
		 M128.609,158.726c-1.145,1.327-5.87,9.576-6.005,10.415c0.427,0.05,0.858,0.071,1.275,0.158c0.716,0.15,1.228-0.033,1.508-0.752
		c0.134-0.342,0.349-0.612,0.789-0.579c1.21,0.09,2.421,0.168,3.557,0.247c0.752,1.702,1.141,1.88,3.271,1.505
		C131.554,166.092,130.117,162.497,128.609,158.726z M54.306,177.813c0.874-0.607,1.653-1.022,2.27-1.608
		c1.044-0.99,1.213-2.424,0.585-3.711c-0.574-1.176-1.865-1.912-3.237-1.715c-1.569,0.225-2.996,0.897-4.555,1.567
		c1.258,3.275,2.481,6.458,3.748,9.754c0.889-0.36,1.626-0.66,2.4-0.975C55.069,179.897,54.68,178.834,54.306,177.813z
		 M181.761,172.156c-1.335,3.309-2.611,6.466-3.928,9.726c0.874,0.343,1.586,0.621,2.404,0.942c0.548-1.304,1.042-2.483,1.561-3.714
		c1.132,0.437,2.147,0.828,3.254,1.255c0.287-0.7,0.532-1.303,0.832-2.033c-1.129-0.472-2.157-0.901-3.247-1.357
		c0.274-0.642,0.484-1.135,0.73-1.708c1.251,0.488,2.405,0.938,3.646,1.424c0.295-0.753,0.531-1.359,0.813-2.08
		C185.805,173.793,183.881,173.014,181.761,172.156z M89.688,160.795c2.042,3.34,4.063,6.644,6.082,9.947
		c0.104-0.009,0.209-0.016,0.314-0.024c1.176-3.708,2.387-7.404,3.516-11.299c-0.591,0.059-0.977,0.149-1.354,0.125
		c-0.935-0.058-1.309,0.443-1.514,1.277c-0.272,1.108-0.631,2.195-0.963,3.288c-0.107,0.353-0.249,0.695-0.446,1.238
		c-0.71-1.206-1.292-2.225-1.906-3.225c-1.333-2.171-0.593-1.945-3.393-1.532C89.988,160.597,89.957,160.63,89.688,160.795z
		 M124.705,158.747c-3.014-0.104-5.951-0.206-8.981-0.311c0,0.835,0,1.513,0,2.266c1.051,0.087,2.018,0.167,2.998,0.248
		c0,2.714,0,5.336,0,8.062c0.835,0,1.598,0,2.472,0c0.111-2.649,0.22-5.239,0.334-7.961c1.086,0,2.087,0,3.178,0
		C124.705,160.26,124.705,159.609,124.705,158.747z M79.951,164.951c0.634,2.677,1.238,5.229,1.87,7.892
		c0.891-0.202,1.638-0.372,2.514-0.57c-0.608-2.714-1.188-5.3-1.779-7.94c1.094-0.271,2.039-0.504,3.112-0.77
		c-0.17-0.763-0.318-1.427-0.497-2.234c-3.026,0.7-5.921,1.369-8.926,2.063c0.205,0.825,0.368,1.487,0.545,2.206
		C77.888,165.373,78.842,165.178,79.951,164.951z M90.739,171.104c-0.531-3.556-1.005-6.928-1.673-10.372
		c-0.9,0.171-1.652,0.313-2.492,0.473c0.52,3.504,0.993,6.877,1.659,10.285C89.108,171.355,89.838,171.244,90.739,171.104z
		 M152.55,173.697c0.938,0.205,1.687,0.369,2.545,0.556c0.818-3.458,1.634-6.757,2.33-10.204c-0.896-0.189-1.646-0.347-2.519-0.532
		C154.114,166.939,153.355,170.221,152.55,173.697z M196.708,188.768c0.021-0.698-0.532-1.282-1.229-1.298
		c-0.676-0.016-1.296,0.569-1.308,1.234c-0.012,0.661,0.586,1.289,1.245,1.31C196.093,190.034,196.687,189.462,196.708,188.768z
		 M185.077,183.242c0.017-0.681-0.556-1.299-1.223-1.322c-0.646-0.022-1.286,0.589-1.307,1.25c-0.02,0.679,0.551,1.28,1.237,1.303
		C184.487,184.494,185.06,183.949,185.077,183.242z"/>
	<path fill-rule="evenodd" clip-rule="evenodd" fill="#FFFFFF" d="M198.711,169.884c-26.274-14.238-54.296-21.104-83.934-21.099
		c-29.632,0.004-57.648,6.881-83.916,21.118c-0.108-0.706-0.221-1.347-0.305-1.992c-2.081-16.071-2.285-32.223-2.085-48.393
		c0.009-0.699,0.233-1.166,0.779-1.599c9.748-7.74,19.485-15.494,29.216-23.256c0.459-0.366,0.917-0.549,1.509-0.53
		c1.103,0.037,2.208,0.011,3.413,0.011c2.198,15.701,9.654,28.188,22.784,37.088c9.214,6.247,19.5,9.037,30.608,8.649
		c8.27-0.289,16.048-2.48,23.271-6.544c7.222-4.063,13.144-9.545,17.754-16.434c4.605-6.882,7.343-14.465,8.365-22.753
		c1.39,0,2.691-0.046,3.986,0.029c0.379,0.022,0.775,0.343,1.103,0.603c5.697,4.518,11.385,9.047,17.073,13.576
		c3.987,3.175,7.963,6.366,11.972,9.514c0.597,0.468,0.8,0.953,0.81,1.692c0.126,9.289,0.112,18.574-0.311,27.855
		c-0.329,7.224-0.911,14.428-1.895,21.596C198.873,169.28,198.791,169.54,198.711,169.884z"/>
	<path fill-rule="evenodd" clip-rule="evenodd" fill="#FFFFFF" d="M144.024,109.676c-0.338-0.234-0.601-0.406-0.852-0.592
		c-4.472-3.315-8.935-6.645-13.428-9.933c-0.617-0.452-0.832-0.916-0.816-1.668c0.129-5.962,0.222-11.925,0.309-17.887
		c0.007-0.552,0.117-0.957,0.625-1.286c4.834-3.139,9.654-6.302,14.479-9.454c0.096-0.063,0.218-0.086,0.381-0.148
		c0.235,0.164,0.497,0.33,0.742,0.519c3.027,2.345,6.046,4.705,9.089,7.029c0.557,0.425,0.785,0.874,0.768,1.582
		c-0.188,7.659-0.35,15.318-0.506,22.978c-0.01,0.504-0.112,0.887-0.554,1.213C150.869,104.542,147.494,107.08,144.024,109.676z"/>
	<path fill-rule="evenodd" clip-rule="evenodd" fill="#FFFFFF" d="M78.297,89.216c0.444-0.026,0.794-0.058,1.145-0.067
		c5.292-0.123,10.586-0.223,15.877-0.382c0.854-0.026,1.353,0.252,1.834,0.938c3.453,4.912,6.935,9.804,10.44,14.679
		c0.466,0.648,0.551,1.188,0.281,1.949c-1.796,5.059-3.54,10.136-5.304,15.207c-0.128,0.367-0.288,0.724-0.442,1.11
		c-0.399,0-0.752,0.016-1.104-0.002c-3.944-0.209-7.889-0.437-11.834-0.624c-0.693-0.033-1.142-0.26-1.545-0.846
		c-4.193-6.081-8.416-12.142-12.63-18.209c-0.29-0.417-0.573-0.78-0.387-1.391C75.866,97.5,77.059,93.407,78.297,89.216z"/>
	<path fill-rule="evenodd" clip-rule="evenodd" fill="#FFFFFF" d="M142.814,111.093c-0.11,0.387-0.178,0.688-0.279,0.979
		c-1.254,3.617-2.527,7.227-3.757,10.853c-0.211,0.626-0.53,0.964-1.171,1.153c-7.458,2.198-14.909,4.418-22.356,6.646
		c-0.527,0.158-0.943,0.163-1.425-0.177c-3.261-2.297-6.543-4.564-9.817-6.843c-0.095-0.067-0.174-0.157-0.313-0.285
		c0.061-0.272,0.106-0.578,0.199-0.867c1.745-5.408,3.51-10.811,5.229-16.227c0.242-0.763,0.616-1.144,1.403-1.366
		c5.469-1.544,10.923-3.141,16.378-4.735c0.558-0.163,1.025-0.207,1.544,0.183c4.646,3.483,9.309,6.942,13.968,10.407
		C142.542,110.91,142.674,110.996,142.814,111.093z"/>
	<path fill-rule="evenodd" clip-rule="evenodd" fill="#FFFFFF" d="M78.314,87.495c-0.841-3.451-1.653-6.784-2.465-10.116
		c-0.215-0.881-0.422-1.765-0.657-2.641c-0.143-0.532-0.067-0.968,0.275-1.431c4.483-6.063,8.952-12.136,13.412-18.215
		c0.283-0.387,0.582-0.573,1.075-0.572c4.303,0.019,8.607,0.014,12.911,0.021c0.113,0,0.226,0.052,0.408,0.096
		c0.093,0.268,0.205,0.557,0.295,0.852c1.509,4.9,3.004,9.806,4.538,14.698c0.221,0.707,0.167,1.219-0.302,1.833
		c-3.545,4.644-7.052,9.317-10.556,13.992c-0.374,0.499-0.736,0.809-1.434,0.832c-5.484,0.188-10.967,0.428-16.45,0.649
		C79.055,87.506,78.743,87.495,78.314,87.495z"/>
	<path fill-rule="evenodd" clip-rule="evenodd" fill="#FFFFFF" d="M143.377,67.372c-1.491,1-2.9,1.945-4.309,2.89
		c-3.117,2.091-6.242,4.169-9.341,6.286c-0.582,0.396-1.075,0.451-1.745,0.221c-5.714-1.955-11.44-3.876-17.169-5.791
		c-0.59-0.197-1.021-0.411-1.235-1.096c-1.619-5.201-3.285-10.388-4.934-15.58c-0.023-0.073-0.022-0.154-0.042-0.306
		c0.211-0.168,0.44-0.377,0.696-0.548c3.21-2.164,6.435-4.307,9.629-6.494c0.59-0.404,1.091-0.43,1.747-0.204
		c7.242,2.49,14.492,4.958,21.744,7.419c0.586,0.2,1.019,0.431,1.225,1.112c1.158,3.815,2.372,7.613,3.564,11.417
		C143.266,66.883,143.303,67.075,143.377,67.372z"/>
	<path fill-rule="evenodd" clip-rule="evenodd" fill="#FFFFFF" d="M114.063,39.846c11.767-0.01,21.988,3.531,31.156,10.738
		c-0.438,0.208-0.699,0.347-0.971,0.459c-1.237,0.517-2.487,1.005-3.713,1.545c-0.573,0.253-1.086,0.28-1.692,0.07
		c-7.004-2.423-14.015-4.827-21.032-7.212c-0.603-0.205-1.011-0.511-1.304-1.082C115.771,42.935,114.981,41.532,114.063,39.846z"/>
	<path fill-rule="evenodd" clip-rule="evenodd" fill="#FFFFFF" d="M159.901,105.628c-1.093-1.16-2.122-2.193-3.068-3.299
		c-0.242-0.283-0.311-0.794-0.307-1.199c0.029-2.964,0.104-5.928,0.15-8.892c0.078-4.742,0.163-9.484,0.201-14.227
		c0.006-0.82,0.247-1.406,0.867-1.943c1.007-0.873,1.944-1.826,2.936-2.771C163.97,81.411,164.303,95.241,159.901,105.628z"/>
	<path fill-rule="evenodd" clip-rule="evenodd" fill="#FFFFFF" d="M87.914,48.022c0.125,1.836,0.21,3.409,0.352,4.977
		c0.052,0.587-0.26,0.966-0.564,1.375c-3.293,4.437-6.587,8.874-9.88,13.311c-1.271,1.711-2.553,3.414-3.802,5.141
		c-0.35,0.483-0.724,0.748-1.348,0.787c-1.293,0.08-2.58,0.254-3.874,0.389c-0.044-1.666,2.235-6.998,4.775-11.102
		C77.231,56.985,81.923,52.062,87.914,48.022z"/>
	<path fill-rule="evenodd" clip-rule="evenodd" fill="#FFFFFF" d="M143.035,127.416c-6.442,5.711-22.081,10.375-30.378,9.058
		c0.711-1.272,1.359-2.518,2.106-3.701c0.171-0.271,0.675-0.36,1.044-0.472c6.672-2.043,13.364-4.024,20.01-6.148
		c1.721-0.55,3.241-0.668,4.829,0.247C141.354,126.808,142.157,127.05,143.035,127.416z"/>
	<path fill-rule="evenodd" clip-rule="evenodd" fill="#FFFFFF" d="M68.573,101.839c1.359,0.292,2.709,0.537,4.027,0.896
		c0.359,0.098,0.685,0.497,0.922,0.83c2.841,3.991,5.662,7.995,8.488,11.996c1.55,2.194,3.089,4.395,4.659,6.575
		c0.371,0.515,0.517,0.998,0.4,1.642c-0.209,1.158-0.313,2.334-0.463,3.525C80.639,125.09,68.702,108.233,68.573,101.839z"/>
	<path fill-rule="evenodd" clip-rule="evenodd" fill="#F7DB17" d="M75.802,43.07c-1.158,0.203-2.312,0.429-3.474,0.601
		c-0.783,0.116-1.26,0.405-1.398,1.289c-0.188,1.204-0.545,2.381-0.898,3.852c-0.552-1.019-1.08-1.793-1.408-2.646
		c-0.543-1.408-1.332-2.086-2.938-1.664c-0.89,0.234-1.861,0.158-3.084,0.241c0.678-0.708,1.183-1.237,1.69-1.766
		c0.437-0.457,0.864-0.924,1.316-1.365c0.359-0.351,0.418-0.707,0.21-1.17c-0.404-0.9-0.768-1.818-1.141-2.732
		c-0.128-0.314-0.235-0.638-0.458-1.247c0.863,0.417,1.482,0.716,2.103,1.015c0.569,0.274,1.154,0.519,1.704,0.828
		c0.493,0.278,0.866,0.201,1.273-0.171c0.758-0.693,1.548-1.35,2.333-2.012c0.23-0.194,0.487-0.358,0.908-0.663
		c-0.17,1.213-0.301,2.221-0.455,3.225c-0.251,1.649-0.255,1.646,1.178,2.519c0.871,0.53,1.737,1.069,2.606,1.603
		C75.846,42.895,75.824,42.982,75.802,43.07z"/>
	<path fill-rule="evenodd" clip-rule="evenodd" fill="#F7DB17" d="M139.323,31.091c-1.612,0.355-3.128,0.689-4.925,1.085
		c1.061-1.494,1.945-2.74,2.905-4.093c-0.805-1.362-1.616-2.734-2.569-4.344c1.751,0.543,3.236,1.004,4.821,1.495
		c1.037-1.187,2.067-2.367,3.224-3.689c0.06,0.398,0.122,0.634,0.125,0.871c0.016,1.104,0.034,2.21,0.013,3.314
		c-0.012,0.551,0.191,0.873,0.709,1.075c0.953,0.373,1.892,0.789,2.831,1.198c0.271,0.118,0.526,0.271,1.007,0.521
		c-1.361,0.458-2.507,0.838-3.649,1.228c-1.058,0.361-1.043,0.367-1.133,1.494c-0.095,1.164-0.215,2.325-0.324,3.487
		c-0.083,0.031-0.166,0.062-0.249,0.093C141.203,33.611,140.297,32.397,139.323,31.091z"/>
	<path fill-rule="evenodd" clip-rule="evenodd" fill="#F7DB17" d="M54.905,64.966c-1.45,0.748-2.811,1.45-4.171,2.151
		c-0.064-0.043-0.128-0.087-0.191-0.13c0.538-1.453,1.076-2.906,1.632-4.41c-1.098-1.096-2.17-2.167-3.45-3.445
		c0.954,0,1.604-0.009,2.254,0.002c0.592,0.011,1.189,0,1.775,0.076c0.651,0.084,1.031-0.144,1.293-0.743
		c0.395-0.904,0.848-1.782,1.29-2.665c0.133-0.265,0.309-0.507,0.58-0.944c0.345,1.253,0.64,2.307,0.926,3.363
		c0.386,1.425,0.385,1.417,1.885,1.614c1.047,0.137,2.091,0.303,3.214,0.675c-0.803,0.537-1.603,1.077-2.409,1.608
		c-1.541,1.015-1.543,1.012-1.234,2.802c0.163,0.951,0.33,1.901,0.495,2.852c-0.075,0.038-0.15,0.076-0.226,0.114
		C57.373,66.934,56.179,65.982,54.905,64.966z"/>
	<path fill-rule="evenodd" clip-rule="evenodd" fill="#F7DB17" d="M108.858,20.657c1.124-0.06,2.248-0.133,3.373-0.178
		c1.287-0.052,1.289-0.04,1.76-1.272c0.417-1.092,0.829-2.186,1.335-3.523c0.481,1.252,0.866,2.24,1.241,3.231
		c0.671,1.773,0.455,1.5,2.146,1.571c0.869,0.037,1.736,0.091,2.604,0.143c0.155,0.009,0.307,0.049,0.644,0.107
		c-1.152,1.225-2.528,2.002-3.685,3.156c0.397,1.492,0.798,2.998,1.276,4.8c-1.563-1.002-2.875-1.843-4.233-2.715
		c-1.321,0.86-2.604,1.695-4.081,2.656c0.192-1.748,0.862-3.175,1.125-4.825c-1.167-0.943-2.375-1.92-3.583-2.897
		C108.805,20.827,108.832,20.742,108.858,20.657z"/>
	<path fill-rule="evenodd" clip-rule="evenodd" fill="#F7DB17" d="M157.329,35.563c0.952,0.817,1.928,1.609,2.849,2.46
		c0.508,0.47,0.957,0.564,1.578,0.218c0.859-0.481,1.763-0.887,2.652-1.315c0.269-0.129,0.554-0.226,1.017-0.411
		c-0.67,1.628-1.263,3.074-1.888,4.595c1.098,1.149,2.175,2.278,3.461,3.625c-0.857-0.062-1.424-0.103-1.99-0.144
		c-0.591-0.043-1.184-0.073-1.772-0.133c-1.234-0.127-1.234-0.134-1.825,0.962c-0.553,1.027-1.104,2.056-1.655,3.083
		c-0.082-0.014-0.164-0.027-0.246-0.041c-0.276-1.136-0.627-2.26-0.809-3.411c-0.143-0.904-0.589-1.271-1.445-1.388
		c-1.155-0.158-2.299-0.396-3.494-0.838c0.484-0.31,0.964-0.625,1.451-0.929c0.503-0.313,1.014-0.614,1.518-0.924
		c1.026-0.628,1.015-0.628,0.851-1.773c-0.167-1.167-0.313-2.337-0.467-3.506C157.185,35.649,157.257,35.606,157.329,35.563z"/>
	<path fill-rule="evenodd" clip-rule="evenodd" fill="#F7DB17" d="M82.373,28.34c0.852-0.365,1.703-0.73,2.555-1.094
		c0.327-0.139,0.647-0.296,0.983-0.409c0.564-0.189,0.8-0.555,0.789-1.153c-0.023-1.259-0.007-2.519,0.121-3.841
		c1.276,0.955,2.121,2.282,3.287,3.374c1.502-0.465,2.99-0.925,4.752-1.471c-0.636,1.078-1.128,1.914-1.621,2.749
		c-0.161,0.271-0.305,0.558-0.494,0.808c-0.39,0.515-0.368,0.96,0.038,1.485c0.791,1.025,1.518,2.098,2.447,3.395
		c-1.316-0.294-2.365-0.537-3.418-0.761c-1.815-0.385-1.353-0.516-2.41,0.858c-0.602,0.782-1.176,1.585-1.767,2.376
		c-0.044,0.06-0.118,0.097-0.329,0.262c-0.092-0.803-0.207-1.513-0.251-2.228c-0.156-2.562-0.148-2.561-2.589-3.378
		c-0.694-0.232-1.385-0.477-2.077-0.715C82.383,28.511,82.377,28.426,82.373,28.34z"/>
	<path fill-rule="evenodd" clip-rule="evenodd" fill="#F7DB17" d="M178.885,67.142c-1.357-0.711-2.716-1.422-4.149-2.173
		c-1.269,0.993-2.52,1.974-3.979,3.118c0.246-1.407,0.437-2.526,0.639-3.645c0.235-1.304,0.24-1.305-0.84-2.015
		c-0.954-0.627-1.911-1.251-3.132-2.05c1.155-0.193,2.047-0.36,2.944-0.49c2.027-0.292,2.027-0.285,2.541-2.195
		c0.204-0.762,0.419-1.521,0.634-2.281c0.031-0.112,0.086-0.218,0.218-0.548c0.279,0.525,0.494,0.911,0.692,1.306
		c0.388,0.776,0.797,1.545,1.142,2.341c0.241,0.559,0.604,0.729,1.196,0.71c1.259-0.043,2.52-0.013,3.871-0.013
		c-0.134,0.193-0.245,0.416-0.411,0.583c-0.726,0.727-1.448,1.458-2.209,2.147c-0.475,0.431-0.586,0.841-0.326,1.456
		c0.502,1.188,0.919,2.413,1.372,3.622C179.02,67.058,178.952,67.1,178.885,67.142z"/>
	<path fill-rule="evenodd" clip-rule="evenodd" d="M196.863,199.213c-0.871,3.14-1.707,6.305-2.627,9.445
		c-3.049,10.402-6.847,20.521-11.637,30.255c-6.538,13.287-14.72,25.422-25.254,35.896c-11.847,11.778-25.681,20.399-41.393,26.04
		c-0.847,0.304-1.585,0.253-2.402-0.041c-16.526-5.951-30.929-15.186-43.111-27.854c-7.576-7.879-13.92-16.668-19.281-26.177
		C43.708,233.559,38.335,219.5,34.3,204.905c-0.432-1.56-0.833-3.128-1.24-4.694c-0.299-1.153-0.295-1.16,0.704-1.795
		c6.716-4.266,13.737-7.953,21.048-11.09c10.642-4.564,21.669-7.854,33.066-9.872c10.653-1.887,21.389-2.665,32.212-2.281
		c13.337,0.472,26.389,2.611,39.157,6.48c13.003,3.94,25.245,9.551,36.717,16.836c0.2,0.127,0.395,0.262,0.587,0.399
		C196.615,198.934,196.662,199.001,196.863,199.213z M107.477,178.661c0,38.882,0,77.563,0,116.335
		c2.237,0.866,4.437,1.741,6.658,2.558c0.379,0.141,0.895,0.16,1.269,0.022c2.11-0.78,4.197-1.626,6.292-2.448
		c0.371-0.146,0.568-0.398,0.551-0.813c-0.015-0.355,0.001-0.711,0.001-1.066c0-13.518,0-27.034,0-40.551
		c0-24.149,0-48.297,0-72.446c0-0.501,0-1.002,0-1.587C117.239,178.294,112.403,178.279,107.477,178.661z M92.5,286.931
		c0.279-2.525,0.159-105.5-0.141-106.466c-4.771,0.712-9.488,1.745-14.269,3.016c0,0.549,0,1.016,0,1.482c0,6.914,0,13.829,0,20.743
		c0,22.955,0.005,45.911-0.017,68.867c-0.001,0.908,0.26,1.533,0.944,2.142c3.904,3.473,8.011,6.675,12.376,9.546
		C91.713,286.471,92.049,286.659,92.5,286.931z M137.253,180.458c-0.091,0.159-0.157,0.224-0.163,0.293
		c-0.025,0.274-0.041,0.551-0.041,0.827c0.014,35.014,0.029,70.027,0.046,105.041c0,0.034,0.024,0.076,0.05,0.1
		c0.027,0.025,0.072,0.031,0.184,0.074c0.256-0.152,0.563-0.321,0.854-0.512c4.436-2.911,8.607-6.161,12.559-9.702
		c0.56-0.502,0.75-1.011,0.75-1.739c-0.016-30.075-0.014-60.15-0.014-90.226c0-0.382,0-0.763,0-1.157
		C146.669,182.207,141.98,181.164,137.253,180.458z M166.35,188.293c0,23.537,0,46.968,0,70.631
		c0.349-0.433,0.574-0.685,0.769-0.958c5.225-7.369,9.595-15.225,13.288-23.459c0.22-0.487,0.346-1.06,0.347-1.593
		c0.02-12.403,0.008-24.807,0.031-37.209c0.002-0.836-0.304-1.268-1.035-1.629c-4.073-2.008-8.204-3.883-12.448-5.504
		C167.019,188.464,166.721,188.4,166.35,188.293z M63.223,258.906c0-23.706,0-47.112,0-70.679
		c-4.985,1.864-9.716,3.986-14.319,6.365c-0.02,0.327-0.044,0.562-0.044,0.797c-0.002,12.56-0.005,25.118,0.011,37.679
		c0,0.456,0.105,0.947,0.292,1.363c3.687,8.192,8.02,16.022,13.211,23.366C62.593,258.107,62.836,258.402,63.223,258.906z"/>
	<path fill-rule="evenodd" clip-rule="evenodd" d="M172.424,167.977c0.607,4.146,1.005,8,1.483,12.085
		c-0.797-0.25-1.405-0.452-2.021-0.63c-0.926-0.268-0.436-1.17-0.977-1.906c-1.011-0.352-2.264-0.787-3.521-1.224
		c-0.416,0.389-0.787,0.735-1.201,1.12c-0.691-0.2-1.507-0.176-1.6-1.016c-0.618,0-1.135,0.035-1.646-0.008
		c-0.623-0.054-0.928-0.452-1.115-1.047c-0.389-1.231-0.854-2.44-1.528-3.677c-0.179,0.608-0.357,1.217-0.539,1.825
		c-0.178,0.595-0.357,1.188-0.564,1.873c-0.811-0.211-1.518-0.397-2.359-0.618c0.786-3.418,1.745-6.685,2.652-10.095
		c1.683,0.405,3.279,0.672,4.701,1.471c1.029,0.58,1.634,1.507,1.574,2.727c-0.061,1.24-0.674,2.161-1.821,2.693
		c-0.212,0.099-0.43,0.189-0.767,0.338c0.445,1.218,0.883,2.416,1.359,3.727c1.068-0.726,1.79-1.654,2.63-2.447
		c0.862-0.813,1.688-1.664,2.531-2.497C170.528,169.847,171.363,169.024,172.424,167.977z M161.422,167.297
		c-0.228,0.888-0.432,1.689-0.635,2.483c1.485,0.461,2.229,0.235,2.483-0.66C163.522,168.23,163.066,167.744,161.422,167.297z
		 M168.701,174.703c0.852,0.263,1.496,0.462,2.309,0.713c-0.141-1.051,0.042-1.922-0.317-2.904
		C170.021,173.25,169.449,173.88,168.701,174.703z"/>
	<path fill-rule="evenodd" clip-rule="evenodd" d="M63.405,166.94c3.056-0.009,5.506,2.546,5.521,5.757
		c0.014,2.947-2.405,5.38-5.324,5.355c-2.996-0.024-5.436-2.578-5.452-5.707C58.135,169.345,60.464,166.949,63.405,166.94z
		 M63.638,175.514c1.194,0.01,2.078-0.635,2.44-1.743c0.441-1.351-0.148-3.066-1.331-3.869c-1.444-0.983-3.314-0.329-3.768,1.362
		c-0.352,1.311-0.039,2.5,0.918,3.48C62.379,175.236,62.971,175.535,63.638,175.514z"/>
	<path fill-rule="evenodd" clip-rule="evenodd" d="M100.233,164.027c0.011-3.075,2.348-5.484,5.322-5.488
		c3.002-0.004,5.365,2.449,5.38,5.585c0.014,3.117-2.363,5.561-5.393,5.544C102.559,169.653,100.222,167.169,100.233,164.027z
		 M105.308,161.049c-0.479-0.017-1.066,0.242-1.551,0.765c-1.176,1.267-1.087,3.542,0.192,4.705c1.106,1.005,2.746,0.863,3.628-0.35
		c0.786-1.081,0.835-2.274,0.327-3.473C107.472,161.675,106.707,161.056,105.308,161.049z"/>
	<path fill-rule="evenodd" clip-rule="evenodd" d="M36.889,189.786c-1.578-3.236-3.06-6.276-4.59-9.413
		c1.909-1.057,3.712-2.145,5.875-2.191c2.094-0.046,3.622,0.965,4.531,2.855c0.952,1.979,0.69,3.839-0.663,5.54
		c-0.315,0.396-0.696,0.784-1.128,1.034C39.659,188.34,38.362,188.998,36.889,189.786z M38.143,186.414
		c2.375-1.095,3.059-2.597,2.108-4.343c-0.891-1.636-2.662-1.922-4.551-0.647C36.498,183.053,37.304,184.7,38.143,186.414z"/>
	<path fill-rule="evenodd" clip-rule="evenodd" d="M146.057,165.328c1.289,0.265,2.43,0.5,3.655,0.751
		c0.306-1.255,0.581-2.389,0.883-3.63c0.808,0.166,1.526,0.313,2.351,0.481c-0.096,1.785-0.639,3.433-0.953,5.115
		c-0.316,1.692-0.728,3.367-1.121,5.155c-0.89-0.198-1.638-0.364-2.47-0.549c0.283-1.431,0.54-2.734,0.827-4.193
		c-1.231-0.266-2.398-0.518-3.667-0.792c-0.33,1.424-0.629,2.715-0.935,4.035c-0.866,0.127-1.591-0.164-2.316-0.391
		c-0.085-0.891,1.546-8.829,2.103-10.163c0.724,0.142,1.475,0.29,2.354,0.462C146.526,162.864,146.309,164.006,146.057,165.328z"/>
	<path fill-rule="evenodd" clip-rule="evenodd" d="M75.431,169.917c1.324,1.145,2.568,2.221,3.877,3.353
		c-0.812,0.595-1.655,0.634-2.439,0.8c-0.232,0.049-0.574-0.203-0.801-0.394c-0.755-0.635-1.477-1.309-2.219-1.96
		c-0.258-0.228-0.537-0.43-1.017-0.554c0.262,1.189,0.524,2.38,0.821,3.723c-0.813,0.203-1.551,0.387-2.423,0.604
		c-0.85-3.399-1.669-6.676-2.527-10.109c1.723-0.476,3.351-1.147,5.096-0.987c2.469,0.227,3.563,2.826,2.129,4.858
		C75.795,169.441,75.65,169.625,75.431,169.917z M72.304,169.263c1.652-0.406,2.143-0.985,1.818-1.97
		c-0.268-0.816-1.035-0.984-2.393-0.458C71.912,167.608,72.098,168.396,72.304,169.263z"/>
	<path fill-rule="evenodd" clip-rule="evenodd" d="M48.783,175.142c-1.223,0.547-2.324,1.04-3.55,1.589
		c0.191,0.498,0.365,0.952,0.583,1.521c1.051-0.413,2.023-0.795,3.118-1.224c0.298,0.662,0.565,1.255,0.889,1.977
		c-1.038,0.485-2.016,0.942-3.057,1.43c0.233,0.561,0.439,1.057,0.691,1.662c1.237-0.506,2.389-0.978,3.66-1.498
		c0.314,0.688,0.599,1.31,0.958,2.097c-2.039,0.866-3.975,1.69-6.052,2.574c-1.381-3.247-2.714-6.382-4.104-9.649
		c2.024-0.86,3.93-1.671,5.972-2.539C48.198,173.79,48.468,174.415,48.783,175.142z"/>
	<path fill-rule="evenodd" clip-rule="evenodd" d="M195.946,182.07c-0.298-0.478-0.488-0.809-0.703-1.125
		c-0.95-1.408-2.563-1.872-3.918-1.135c-1.365,0.742-2.121,2.689-1.542,4.084c0.492,1.186,1.491,1.692,2.706,1.799
		c0.622,0.055,1.252,0.01,2.09,0.01c-0.404,0.773-0.708,1.483-1.139,2.105c-0.153,0.224-0.612,0.317-0.937,0.328
		c-3.322,0.107-5.908-2.736-5.479-6.118c0.297-2.345,1.584-4.057,3.869-4.781c2.247-0.714,4.201-0.024,5.794,1.679
		c0.669,0.717,0.657,0.814,0.182,1.641C196.602,181.022,196.311,181.477,195.946,182.07z"/>
	<path fill-rule="evenodd" clip-rule="evenodd" d="M141.731,164.092c-0.436-0.386-0.716-0.653-1.014-0.896
		c-1.283-1.046-3.04-1.011-4.085,0.076c-1.089,1.13-1.222,3.204-0.246,4.361c0.941,1.116,2.183,1.147,3.473,0.84
		c0.488-0.116,0.95-0.337,1.646-0.592c-0.176,0.925-0.218,1.721-0.507,2.415c-0.14,0.336-0.719,0.606-1.142,0.691
		c-4.052,0.817-6.649-2.047-6.761-4.968c-0.085-2.205,0.673-4.059,2.612-5.238c1.839-1.119,3.758-1.058,5.637-0.047
		c1.023,0.55,1.05,0.662,0.784,1.779C142.021,162.971,141.899,163.425,141.731,164.092z"/>
	<path fill-rule="evenodd" clip-rule="evenodd" d="M128.609,158.726c1.508,3.771,2.945,7.366,4.396,10.994
		c-2.131,0.375-2.52,0.197-3.271-1.505c-1.136-0.078-2.347-0.156-3.557-0.247c-0.439-0.033-0.655,0.237-0.789,0.579
		c-0.28,0.719-0.792,0.902-1.508,0.752c-0.417-0.087-0.848-0.107-1.275-0.158C122.739,168.302,127.464,160.053,128.609,158.726z
		 M126.679,165.978c0.835,0.069,1.507,0.125,2.408,0.201c-0.352-1.042-0.636-1.884-1.008-2.983
		C127.542,164.264,127.145,165.052,126.679,165.978z"/>
	<path fill-rule="evenodd" clip-rule="evenodd" d="M54.306,177.813c0.374,1.021,0.763,2.085,1.21,3.312
		c-0.774,0.314-1.511,0.614-2.4,0.975c-1.267-3.296-2.49-6.479-3.748-9.754c1.559-0.67,2.986-1.342,4.555-1.567
		c1.373-0.196,2.663,0.539,3.237,1.715c0.628,1.288,0.459,2.721-0.585,3.711C55.959,176.79,55.18,177.205,54.306,177.813z
		 M53.459,175.664c0.848-0.285,1.538-0.566,1.628-1.368c0.04-0.357-0.181-0.889-0.464-1.106c-0.629-0.48-1.313-0.262-2.016,0.194
		C52.882,174.121,53.151,174.839,53.459,175.664z"/>
	<path fill-rule="evenodd" clip-rule="evenodd" d="M181.761,172.156c2.12,0.858,4.044,1.637,6.065,2.454
		c-0.281,0.721-0.518,1.327-0.813,2.08c-1.241-0.485-2.396-0.936-3.646-1.424c-0.246,0.573-0.456,1.066-0.73,1.708
		c1.09,0.456,2.118,0.886,3.247,1.357c-0.3,0.73-0.545,1.333-0.832,2.033c-1.106-0.427-2.122-0.818-3.254-1.255
		c-0.519,1.23-1.013,2.41-1.561,3.714c-0.818-0.321-1.53-0.6-2.404-0.942C179.149,178.622,180.426,175.465,181.761,172.156z"/>
	<path fill-rule="evenodd" clip-rule="evenodd" d="M89.688,160.795c0.268-0.165,0.3-0.199,0.335-0.205
		c2.8-0.414,2.06-0.64,3.393,1.532c0.614,1,1.196,2.019,1.906,3.225c0.197-0.543,0.338-0.885,0.446-1.238
		c0.332-1.093,0.691-2.18,0.963-3.288c0.205-0.833,0.579-1.334,1.514-1.277c0.378,0.023,0.763-0.066,1.354-0.125
		c-1.129,3.895-2.34,7.591-3.516,11.299c-0.104,0.008-0.209,0.015-0.314,0.024C93.751,167.439,91.731,164.135,89.688,160.795z"/>
	<path fill-rule="evenodd" clip-rule="evenodd" d="M124.705,158.747c0,0.863,0,1.514,0,2.303c-1.091,0-2.091,0-3.178,0
		c-0.114,2.723-0.223,5.313-0.334,7.961c-0.874,0-1.636,0-2.472,0c0-2.726,0-5.348,0-8.062c-0.98-0.081-1.947-0.161-2.998-0.248
		c0-0.753,0-1.431,0-2.266C118.754,158.541,121.691,158.643,124.705,158.747z"/>
	<path fill-rule="evenodd" clip-rule="evenodd" d="M79.951,164.951c-1.109,0.227-2.063,0.422-3.161,0.647
		c-0.177-0.719-0.341-1.381-0.545-2.206c3.005-0.695,5.9-1.364,8.926-2.063c0.179,0.807,0.327,1.472,0.497,2.234
		c-1.073,0.266-2.018,0.499-3.112,0.77c0.591,2.64,1.171,5.226,1.779,7.94c-0.876,0.199-1.624,0.369-2.514,0.57
		C81.189,170.18,80.584,167.628,79.951,164.951z"/>
	<path fill-rule="evenodd" clip-rule="evenodd" d="M90.739,171.104c-0.9,0.139-1.63,0.251-2.507,0.387
		c-0.666-3.408-1.139-6.781-1.659-10.285c0.84-0.16,1.592-0.302,2.492-0.473C89.733,164.176,90.208,167.548,90.739,171.104z"/>
	<path fill-rule="evenodd" clip-rule="evenodd" d="M152.55,173.697c0.806-3.476,1.564-6.757,2.356-10.18
		c0.873,0.185,1.623,0.343,2.519,0.532c-0.696,3.446-1.512,6.745-2.33,10.204C154.236,174.065,153.488,173.901,152.55,173.697z"/>
	<path fill-rule="evenodd" clip-rule="evenodd" d="M196.708,188.768c-0.021,0.694-0.615,1.267-1.292,1.246
		c-0.659-0.021-1.257-0.648-1.245-1.31c0.012-0.665,0.632-1.25,1.308-1.234C196.176,187.485,196.729,188.069,196.708,188.768z"/>
	<path fill-rule="evenodd" clip-rule="evenodd" d="M185.077,183.242c-0.018,0.707-0.59,1.252-1.292,1.23
		c-0.687-0.022-1.257-0.624-1.237-1.303c0.021-0.661,0.66-1.272,1.307-1.25C184.521,181.943,185.094,182.562,185.077,183.242z"/>
	<path fill-rule="evenodd" clip-rule="evenodd" fill="#F7DB17" d="M107.477,178.661c4.926-0.382,9.762-0.367,14.77,0.003
		c0,0.585,0,1.086,0,1.587c0,24.149,0,48.297,0,72.446c0,13.517,0,27.033,0,40.551c0,0.355-0.016,0.711-0.001,1.066
		c0.017,0.415-0.181,0.667-0.551,0.813c-2.095,0.822-4.181,1.668-6.292,2.448c-0.374,0.138-0.889,0.118-1.269-0.022
		c-2.221-0.816-4.421-1.691-6.658-2.558C107.477,256.225,107.477,217.543,107.477,178.661z"/>
	<path fill-rule="evenodd" clip-rule="evenodd" fill="#F7DB17" d="M92.5,286.931c-0.45-0.271-0.786-0.46-1.106-0.67
		c-4.365-2.871-8.473-6.073-12.376-9.546c-0.685-0.608-0.945-1.233-0.944-2.142c0.022-22.956,0.017-45.912,0.017-68.867
		c0-6.914,0-13.829,0-20.743c0-0.467,0-0.934,0-1.482c4.781-1.271,9.498-2.304,14.269-3.016
		C92.658,181.431,92.778,284.405,92.5,286.931z"/>
	<path fill-rule="evenodd" clip-rule="evenodd" fill="#F7DB17" d="M137.253,180.458c4.727,0.706,9.416,1.749,14.224,2.999
		c0,0.395,0,0.775,0,1.157c0,30.075-0.002,60.15,0.014,90.226c0,0.729-0.19,1.237-0.75,1.739c-3.951,3.541-8.123,6.791-12.559,9.702
		c-0.291,0.19-0.597,0.359-0.854,0.512c-0.112-0.043-0.156-0.049-0.184-0.074c-0.026-0.023-0.05-0.065-0.05-0.1
		c-0.017-35.014-0.032-70.027-0.046-105.041c0-0.276,0.016-0.553,0.041-0.827C137.097,180.682,137.163,180.617,137.253,180.458z"/>
	<path fill-rule="evenodd" clip-rule="evenodd" fill="#F7DB17" d="M166.35,188.293c0.371,0.107,0.669,0.171,0.951,0.279
		c4.244,1.621,8.375,3.496,12.448,5.504c0.731,0.361,1.037,0.793,1.035,1.629c-0.023,12.402-0.012,24.806-0.031,37.209
		c-0.001,0.533-0.127,1.105-0.347,1.593c-3.693,8.234-8.063,16.09-13.288,23.459c-0.194,0.273-0.42,0.525-0.769,0.958
		C166.35,235.261,166.35,211.83,166.35,188.293z"/>
	<path fill-rule="evenodd" clip-rule="evenodd" fill="#F7DB17" d="M63.223,258.906c-0.387-0.504-0.629-0.799-0.849-1.108
		c-5.191-7.344-9.524-15.174-13.211-23.366c-0.187-0.416-0.292-0.907-0.292-1.363c-0.016-12.561-0.013-25.119-0.011-37.679
		c0-0.235,0.025-0.47,0.044-0.797c4.603-2.379,9.333-4.501,14.319-6.365C63.223,211.794,63.223,235.2,63.223,258.906z"/>
	<path fill-rule="evenodd" clip-rule="evenodd" fill="#F7DB17" d="M161.422,167.297c1.645,0.447,2.101,0.933,1.849,1.823
		c-0.254,0.896-0.998,1.122-2.483,0.66C160.99,168.986,161.194,168.185,161.422,167.297z"/>
	<path fill-rule="evenodd" clip-rule="evenodd" fill="#F7DB17" d="M168.701,174.703c0.748-0.823,1.32-1.453,1.991-2.191
		c0.359,0.982,0.177,1.853,0.317,2.904C170.197,175.165,169.553,174.966,168.701,174.703z"/>
	<path fill-rule="evenodd" clip-rule="evenodd" fill="#F7DB17" d="M63.638,175.514c-0.667,0.021-1.258-0.277-1.74-0.771
		c-0.957-0.98-1.27-2.169-0.918-3.48c0.454-1.69,2.323-2.345,3.768-1.362c1.182,0.803,1.771,2.519,1.331,3.869
		C65.716,174.879,64.832,175.523,63.638,175.514z"/>
	<path fill-rule="evenodd" clip-rule="evenodd" fill="#F7DB17" d="M105.308,161.049c1.398,0.007,2.164,0.626,2.596,1.646
		c0.508,1.199,0.459,2.392-0.327,3.473c-0.882,1.213-2.522,1.355-3.628,0.35c-1.279-1.163-1.368-3.438-0.192-4.705
		C104.242,161.291,104.829,161.032,105.308,161.049z"/>
	<path fill-rule="evenodd" clip-rule="evenodd" fill="#F7DB17" d="M38.143,186.414c-0.839-1.714-1.645-3.361-2.443-4.99
		c1.889-1.274,3.66-0.988,4.551,0.647C41.202,183.817,40.519,185.319,38.143,186.414z"/>
	<path fill-rule="evenodd" clip-rule="evenodd" fill="#F7DB17" d="M72.304,169.263c-0.206-0.868-0.392-1.655-0.575-2.428
		c1.358-0.526,2.125-0.358,2.393,0.458C74.446,168.278,73.956,168.857,72.304,169.263z"/>
	<path fill-rule="evenodd" clip-rule="evenodd" fill="#F7DB17" d="M126.679,165.978c0.466-0.926,0.862-1.714,1.4-2.782
		c0.372,1.099,0.656,1.94,1.008,2.983C128.186,166.104,127.514,166.047,126.679,165.978z"/>
	<path fill-rule="evenodd" clip-rule="evenodd" fill="#F7DB17" d="M53.459,175.664c-0.308-0.825-0.577-1.543-0.852-2.28
		c0.703-0.456,1.387-0.675,2.016-0.194c0.283,0.217,0.504,0.749,0.464,1.106C54.997,175.098,54.307,175.379,53.459,175.664z"/>
</g>
</svg>
